<svg xmlns="http://www.w3.org/2000/svg" width="150" height="64.044" viewBox="884.327 2467.546 150 64.044"><path d="M941.656 2479.134l-5.055 4.119a25.559 25.559 0 0 0-19.856-9.22c-14.109-.244-25.744 10.997-25.988 25.106-.244 14.109 10.997 25.745 25.105 25.988.294.005.588.005.882 0a26.109 26.109 0 0 0 19.795-9.015l5.056 4.119a32.65 32.65 0 0 1-24.851 11.359c-.761 0-1.599 0-2.284-.076-16.905-1.044-30.094-15.038-30.134-31.977-.038-17.64 14.496-31.992 32.418-31.992a32.53 32.53 0 0 1 24.912 11.589zm-27.103 11.961v-12.592a21.478 21.478 0 0 0-18.227 14.465l11.679 11.481v7.142a14.875 14.875 0 0 1-5.329-6.891l-6.152 2.223a21.454 21.454 0 0 0 18.029 13.804v-18.958l-10.339-10.202a14.758 14.758 0 0 1 3.807-3.928v3.456h6.532zm13.613 17.945a14.514 14.514 0 0 0 3.289-7.233h-6.091v17.207a21.68 21.68 0 0 1-6.54 1.713v-42.232c10.928.999 19.312 10.131 19.376 21.104a20.858 20.858 0 0 1-5.002 13.605l-5.032-4.164zm2.832-13.705a14.56 14.56 0 0 0-5.642-7.75v7.766l5.642-.016zm26.791-2.679c-.221.853-1.362 2.452-4.149 2.452s-4.568-1.614-4.568-4.111c0-2.756 1.667-4.271 4.698-4.271 2.596 0 3.631 1.447 3.807 2.01l.068.206h3.121l-.121-.449c-1.036-3.708-4.393-4.492-7.027-4.492-4.827 0-7.712 2.513-7.712 6.715 0 4.393 2.885 7.119 7.522 7.119 2.444 0 6.662-.655 7.431-5.056l.061-.357h-3.06l-.071.234zm12.563 5.177c4.188 0 6.593-1.599 6.593-4.393 0-2.162-1.575-3.457-4.812-3.944l-3.045-.449c-2.597-.32-2.597-.875-2.597-1.119 0-.944 1.66-1.271 3.046-1.271 3.145 0 3.891 1.081 4.188 1.896l.099.274 2.938-.952-.106-.29c-.327-.891-1.31-3.586-7.05-3.586-4.035 0-6.259 1.455-6.259 4.089 0 2.078 1.729 3.464 4.865 3.883l3.046.418c.937.114 2.497.434 2.497 1.271s-1.462 1.447-3.411 1.447c-3.045 0-4.012-1.112-4.499-2.079l-.114-.236-2.946.914.091.289c1.111 3.556 5.946 3.807 7.4 3.807m13.726-5.9l2.178-4.568 2.186 4.568h-4.364zm-1.324 2.725h6.959l1.332 2.893h3.327l-6.502-13.209h-3.229l-6.585 13.209h3.342l1.356-2.893zm-29.008 15.715h3.807c-.655 1.386-1.903 2.01-4.012 2.01-2.726 0-4.423-1.614-4.423-4.202 0-3.046 2.391-4.111 4.637-4.111 2.726 0 3.365 1.362 3.639 1.949l.076.183h3.114l-.069-.366c-.541-2.809-3.183-4.491-7.058-4.491-5.497 0-7.453 3.586-7.453 6.943a6.318 6.318 0 0 0 2.505 5.413 8.562 8.562 0 0 0 5.017 1.47 8.174 8.174 0 0 0 4.622-1.31l.434 1.142h2.033v-7.188h-6.853l-.016 2.558zm33.949-6.312c2.999 0 4.796 1.522 4.796 4.157 0 3.807-3.357 4.232-4.796 4.232s-4.797-.418-4.797-4.232c0-2.604 1.789-4.157 4.797-4.157m0-2.718c-4.957 0-7.911 2.619-7.911 7.012 0 1.135.381 6.852 7.911 6.852 7.529 0 7.902-5.687 7.902-6.852 0-4.392-2.954-7.012-7.902-7.012m21.781 7.636c0 1.805-.479 3.472-3.966 3.472-2.071 0-3.982-.418-3.982-3.472v-7.324h-3.106v7.5c0 3.989 2.384 6.015 7.089 6.015s7.08-2.025 7.08-6.015v-7.5h-3.114v7.324zm-42.406-4.675h4.499c2.353 0 2.764.48 2.764 1.47s-.411 1.478-2.764 1.478h-4.499v-2.948zm10.369 1.416c0-3.586-2.778-4.065-5.504-4.065h-7.964v13.21h3.099v-4.957h3.479l3.707 4.957h3.807l-3.958-5.2a3.807 3.807 0 0 0 3.296-3.944m41.943-1.347h4.827c1.629 0 2.36.213 2.36 1.431 0 1.219-.762 1.447-2.36 1.447h-4.85l.023-2.878zm4.301-2.719h-7.415v13.21h3.113v-4.888h4.302c2.102 0 6.015 0 6.015-4.157s-3.913-4.165-6.015-4.165m7.675.29h-.511v-.29h1.378v.29h-.518v1.423h-.35v-1.423zm2.764.129l-.487 1.294h-.29l-.487-1.294v1.294h-.342v-1.713h.518l.449 1.173.441-1.173h.518v1.713h-.335l.015-1.294z" fill="#1867BE"/></svg>