<?xml version="1.0" encoding="utf-8"?>
<!-- Generator: Adobe Illustrator 19.2.1, SVG Export Plug-In . SVG Version: 6.00 Build 0)  -->
<svg version="1.1"
	 id="svg3179" xmlns:cc="http://creativecommons.org/ns#" xmlns:dc="http://purl.org/dc/elements/1.1/" xmlns:rdf="http://www.w3.org/1999/02/22-rdf-syntax-ns#" xmlns:svg="http://www.w3.org/2000/svg"
	 xmlns="http://www.w3.org/2000/svg" xmlns:xlink="http://www.w3.org/1999/xlink" x="0px" y="0px" viewBox="0 0 152 152"
	 style="enable-background:new 0 0 152 152;" xml:space="preserve">
<style type="text/css">
	.st0{fill:#BE0F34;}
	.st1{fill:#FFFFFF;}
</style>
<path id="path3103" class="st0" d="M76.2,151.5c41.5,0,75.2-33.7,75.2-75.2C151.5,34.7,117.8,1,76.2,1S1,34.7,1,76.3
	C1,117.8,34.7,151.5,76.2,151.5"/>
<path id="path3105" class="st1" d="M76.2,137.5c33.8,0,61.3-27.4,61.3-61.3S110.1,15,76.2,15C42.4,15,15,42.4,15,76.3
	S42.4,137.5,76.2,137.5"/>
<path id="path3107" class="st0" d="M39.5,35.9h13.9v44.7c0,2.8,0.9,5.3,4.8,5.3c3.6,0,4.7-3.2,4.7-5.7V35.9h13.9v42.9
	c0,10-4.5,17.8-18.7,17.8c-11.8,0-18.6-5.6-18.6-17.8L39.5,35.9"/>
<path id="path3109" class="st0" d="M82.3,116.6V57.3h13.9v47.4h17v11.9H82.3"/>
</svg>
